<svg width="45" height="45" viewBox="0 0 45 45" fill="none" xmlns="http://www.w3.org/2000/svg">
<g clip-path="url(#clip0_245_7548)">
<path d="M23.5545 5.36737C23.5842 5.36737 23.613 5.36719 23.6424 5.36719C27.9262 5.36719 31.9404 7.02341 34.9527 10.0358C37.99 13.073 39.6513 17.1214 39.6307 21.4349C39.6262 22.4057 40.4094 23.1965 41.3802 23.2011C41.3831 23.2011 41.3858 23.2011 41.3887 23.2011C42.3554 23.2011 43.1416 22.4196 43.1463 21.4516C43.1713 16.1925 41.1443 11.2555 37.4386 7.54978C33.7618 3.87287 28.866 1.85156 23.643 1.85156C23.6109 1.85156 23.5785 1.85165 23.5464 1.85174C22.5755 1.8564 21.7923 2.64715 21.7969 3.6179C21.8016 4.58584 22.5876 5.36737 23.5545 5.36737Z" fill="white"/>
<path d="M44.9956 36.2596C44.9328 34.5189 44.2077 32.8945 42.954 31.6855C40.4991 29.3184 38.4424 27.9518 36.4812 27.3851C33.7785 26.604 31.2758 27.3144 29.042 29.4959C29.0387 29.4992 29.0352 29.5025 29.0319 29.5058L26.653 31.867C25.1755 31.037 22.3032 29.2104 19.1618 26.0688L18.9304 25.8376C15.8096 22.7169 13.9714 19.8283 13.135 18.3447L15.4939 15.968C15.4972 15.9647 15.5005 15.9613 15.5038 15.9579C17.6854 13.7243 18.3956 11.2213 17.6146 8.51884C17.0479 6.55773 15.6815 4.50091 13.3142 2.04603C12.1053 0.79227 10.4809 0.0671708 8.74037 0.00441672C7.00022 -0.0582494 5.3274 0.54767 4.0311 1.71134L3.98065 1.7567C3.95718 1.7777 3.93433 1.79941 3.91209 1.82165C1.33162 4.40195 -0.0210226 8.01443 0.000247025 12.2684C0.0362823 19.4948 4.00798 27.7591 10.6244 34.3754C10.6299 34.381 10.6354 34.3863 10.6409 34.3918C11.8848 35.6339 13.297 36.8629 14.8388 38.0451C15.6091 38.6359 16.7125 38.4901 17.3033 37.7198C17.894 36.9493 17.7484 35.8459 16.9779 35.2552C15.5509 34.1612 14.2497 33.0287 13.1104 31.8894C13.1049 31.8839 13.0995 31.8785 13.094 31.8731C7.12749 25.8999 3.54734 18.5659 3.51579 12.2508C3.49944 8.97455 4.48496 6.24001 6.36618 4.33937L6.37962 4.32724C7.65738 3.18044 9.59186 3.25022 10.7837 4.48614C15.3347 9.2057 15.0051 11.4338 12.9942 13.4959L9.73574 16.7789C9.22474 17.2938 9.08244 18.0697 9.37758 18.7324C9.46029 18.9182 11.4614 23.3402 16.4452 28.3241L16.6766 28.5551C21.6598 33.5385 26.0818 35.5395 26.2676 35.6223C26.9303 35.9175 27.7062 35.7751 28.2211 35.2641L31.5035 32.0062C33.5659 29.995 35.7941 29.6649 40.5139 34.2162C41.7498 35.408 41.8196 37.3425 40.6729 38.6199L40.6606 38.6337C38.7753 40.4996 36.0699 41.4843 32.8293 41.4843C32.8027 41.4843 32.7759 41.4843 32.7492 41.4841C30.1589 41.4712 27.1595 40.7611 24.0753 39.4308C23.1839 39.0462 22.1495 39.4572 21.765 40.3487C21.3805 41.2401 21.7915 42.2744 22.6828 42.659C26.2479 44.1967 29.6288 44.9842 32.7316 44.9998C32.7645 44.9999 32.7973 44.9999 32.8302 44.9999C37.0414 44.9999 40.618 43.6483 43.1783 41.0879C43.2006 41.0656 43.2222 41.0428 43.2432 41.0194L43.2888 40.9687C44.4522 39.6725 45.0583 38.0001 44.9956 36.2596Z" fill="white"/>
<path d="M32.4714 12.5265C30.5859 10.6409 28.7762 10.1406 27.9065 9.9C26.9705 9.64117 26.0025 10.19 25.7437 11.1257C25.485 12.0614 26.0337 13.0297 26.9694 13.2885C27.6807 13.4852 28.7554 13.7824 29.9855 15.0124C31.1697 16.1966 31.4842 17.2656 31.6924 17.973L31.7178 18.0591C31.9441 18.8235 32.644 19.3185 33.4026 19.3185C33.5678 19.3186 33.7359 19.295 33.9024 19.2457C34.8332 18.9702 35.3645 17.9921 35.0889 17.0613L35.0651 16.9806C34.7939 16.0593 34.2893 14.3444 32.4714 12.5265Z" fill="white"/>
</g>
<defs>
<clipPath id="clip0_245_7548">
<rect width="45" height="45" fill="white"/>
</clipPath>
</defs>
</svg>
