<svg width="48" height="48" viewBox="0 0 48 48" fill="none" xmlns="http://www.w3.org/2000/svg">
<g clip-path="url(#clip0_245_7530)">
<rect width="48" height="48" fill="white"/>
<path d="M41.1823 6.81775C36.7855 2.42102 30.9412 0 24.7229 0C24.7225 0 24.7211 0 24.7207 0C21.6453 0.000366211 18.6482 0.595825 15.8134 1.77026C12.9782 2.9447 10.4381 4.64282 8.26319 6.81775C3.86683 11.2141 1.44581 17.0596 1.44581 23.2771C1.44581 26.985 2.34046 30.6698 4.03565 33.9529L0.123052 45.1304C-0.152704 45.9188 0.042486 46.7758 0.63355 47.3665C1.047 47.7803 1.59119 48 2.15076 48C2.39063 48 2.63306 47.9597 2.86963 47.877L14.0471 43.9647C17.3302 45.6599 21.015 46.5546 24.7229 46.5546C30.9404 46.5546 36.7855 44.1332 41.1823 39.7368C45.5786 35.3405 48 29.495 48 23.2775C48 17.0596 45.579 11.2141 41.1823 6.81775ZM39.1915 37.7461C35.3269 41.6111 30.1882 43.7391 24.7229 43.7391C21.3794 43.7391 18.0579 42.9122 15.1172 41.347C14.584 41.0636 13.9537 41.0149 13.3879 41.213L3.23292 44.7671L6.78736 34.6121C6.98548 34.0455 6.93641 33.4153 6.65296 32.8824C5.08814 29.9425 4.26087 26.621 4.26087 23.2771C4.26087 17.8118 6.38929 12.6731 10.2539 8.80847C14.1182 4.94421 19.2561 2.8158 24.7211 2.81506H24.7229C30.1886 2.81506 35.3269 4.94348 39.1915 8.80847C43.0565 12.6731 45.1849 17.8114 45.1849 23.2771C45.1849 28.7428 43.0565 33.8815 39.1915 37.7461Z" fill="#ED1556"/>
<path d="M33.3722 25.3531C32.3014 24.2823 30.559 24.2823 29.4882 25.3531L28.317 26.5243C25.4089 24.9397 23.0557 22.5864 21.4707 19.6783L22.6419 18.5072C23.713 17.4364 23.713 15.694 22.6419 14.6232L19.4859 11.4672C18.4151 10.3964 16.6726 10.3964 15.6018 11.4672L13.0772 13.9918C11.631 15.438 11.5588 17.9242 12.8739 20.9927C14.0158 23.6569 16.1054 26.5851 18.7578 29.2375C21.4103 31.89 24.3385 33.9796 27.0027 35.1215C28.4606 35.7462 29.7866 36.0579 30.9325 36.0579C32.1985 36.0579 33.2444 35.6774 34.0036 34.9182L36.5282 32.3932V32.3936C37.0471 31.8746 37.3328 31.1851 37.3328 30.4515C37.3328 29.7177 37.0471 29.0281 36.5282 28.5095L33.3722 25.3531ZM32.0128 32.9275C31.6001 33.3402 30.3308 33.4849 28.112 32.5342C25.7689 31.53 23.1538 29.6521 20.7485 27.2468C18.3433 24.8416 16.4657 22.2268 15.4616 19.8838C14.5105 17.6649 14.6552 16.3953 15.0679 15.9825L17.5442 13.5062L20.6028 16.5652L19.1369 18.0315C18.474 18.6943 18.314 19.6996 18.7391 20.5331C20.6665 24.3124 23.683 27.3289 27.4623 29.2562C28.2962 29.6814 29.3014 29.5217 29.9642 28.8585L31.4302 27.3926L34.4892 30.4515L32.0128 32.9275Z" fill="#ED1556"/>
</g>
<defs>
<clipPath id="clip0_245_7530">
<rect width="48" height="48" fill="white"/>
</clipPath>
</defs>
</svg>
