<svg width="23" height="22" viewBox="0 0 23 22" fill="none" xmlns="http://www.w3.org/2000/svg">
<path fill-rule="evenodd" clip-rule="evenodd" d="M7.47356 0.349293C5.01412 0.982893 2.68555 2.70084 1.32933 4.88253C0.629711 6.0083 0 8.33583 0 9.79642C0 12.2436 1.44969 15.2101 3.54344 17.0471C3.9186 17.3763 4.97443 17.9969 5.88993 18.4264C7.42567 19.147 7.75371 19.2073 10.1315 19.2073C12.5691 19.2073 12.8078 19.1602 14.5407 18.3369L16.3727 17.4665L18.7448 19.7463C21.2096 22.1152 21.836 22.4111 22.6237 21.5777C23.3897 20.7676 23.1034 20.2313 20.6657 17.9077L18.2839 15.6373L19.1932 13.8838C20.0537 12.2244 20.1026 11.9975 20.1026 9.65842C20.1026 7.37403 20.0406 7.06643 19.2849 5.59873C17.035 1.22873 12.2741 -0.887267 7.47356 0.349293ZM13.4444 3.33665C19.266 6.23527 18.6214 14.4564 12.4208 16.392C9.08688 17.4329 5.15779 15.8616 3.525 12.8345C2.77211 11.4386 2.6305 8.96379 3.20822 7.29903C3.77826 5.65658 5.78212 3.65259 7.43335 3.07365C9.0203 2.51726 12.0664 2.65035 13.4444 3.33665Z" fill="#ED1556"/>
</svg>
