<svg width="45" height="45" fill="none" xmlns="http://www.w3.org/2000/svg"><g clip-path="url(#clip0_245_7548)" fill="#fff"><path d="M23.555 5.367h.087c4.284 0 8.298 1.656 11.31 4.669 3.038 3.037 4.7 7.085 4.679 11.399a1.758 1.758 0 001.75 1.766h.008c.966 0 1.753-.781 1.757-1.75.025-5.259-2.002-10.196-5.707-13.901-3.677-3.677-8.573-5.698-13.796-5.698h-.097a1.758 1.758 0 00.009 3.515zM44.996 36.26a6.657 6.657 0 00-2.042-4.574c-2.455-2.368-4.512-3.734-6.473-4.3-2.703-.782-5.205-.072-7.439 2.11l-.01.01-2.379 2.361c-1.477-.83-4.35-2.657-7.491-5.798l-.232-.231c-3.12-3.121-4.959-6.01-5.795-7.493l2.359-2.377a.952.952 0 00.01-.01c2.181-2.234 2.892-4.737 2.11-7.44-.566-1.96-1.933-4.017-4.3-6.472A6.656 6.656 0 008.74.004a6.657 6.657 0 00-4.709 1.707l-.05.046a1.703 1.703 0 00-.069.065C1.332 4.402-.02 8.014 0 12.268c.036 7.227 4.008 15.491 10.624 22.107l.017.017a42.897 42.897 0 004.198 3.653 1.758 1.758 0 102.139-2.79 39.297 39.297 0 01-3.868-3.366l-.016-.016C7.127 25.9 3.547 18.566 3.516 12.251c-.017-3.276.969-6.011 2.85-7.912l.014-.012a3.162 3.162 0 014.404.16c4.55 4.719 4.221 6.947 2.21 9.009l-3.258 3.283a1.758 1.758 0 00-.358 1.953c.082.186 2.083 4.608 7.067 9.592l.232.231c4.983 4.983 9.405 6.984 9.59 7.067a1.758 1.758 0 001.954-.358l3.282-3.258c2.063-2.011 4.291-2.341 9.01 2.21a3.162 3.162 0 01.16 4.404l-.012.014c-1.886 1.866-4.591 2.85-7.832 2.85h-.08c-2.59-.013-5.59-.723-8.674-2.053a1.758 1.758 0 10-1.392 3.228c3.565 1.538 6.946 2.325 10.049 2.34h.098c4.211 0 7.788-1.35 10.348-3.911.023-.022.044-.045.065-.069l.046-.05a6.657 6.657 0 001.707-4.71z"/><path d="M32.471 12.527c-1.885-1.886-3.695-2.386-4.564-2.627a1.758 1.758 0 10-.938 3.389c.712.196 1.786.493 3.016 1.723 1.185 1.185 1.5 2.254 1.707 2.961l.026.086a1.759 1.759 0 003.37-.998l-.023-.08c-.271-.922-.776-2.637-2.594-4.455z"/></g><defs><clipPath id="clip0_245_7548"><path fill="#fff" d="M0 0h45v45H0z"/></clipPath></defs></svg>