<svg width="48" height="48" fill="none" xmlns="http://www.w3.org/2000/svg"><g clip-path="url(#clip0_245_7530)"><path fill="#fff" d="M0 0h48v48H0z"/><path d="M41.182 6.818A23.123 23.123 0 0024.722 0h-.001c-3.076 0-6.073.596-8.908 1.77a23.161 23.161 0 00-7.55 5.048 23.125 23.125 0 00-6.817 16.46c0 3.707.894 7.392 2.59 10.675L.123 45.13a2.14 2.14 0 00.51 2.236 2.138 2.138 0 002.237.511l11.177-3.912a23.346 23.346 0 0010.676 2.59 23.126 23.126 0 0016.46-6.818A23.125 23.125 0 0048 23.277a23.124 23.124 0 00-6.818-16.46zm-1.99 30.928a20.327 20.327 0 01-14.47 5.993c-3.343 0-6.664-.827-9.605-2.392a2.168 2.168 0 00-1.73-.134L3.234 44.767l3.554-10.155a2.169 2.169 0 00-.134-1.73 20.513 20.513 0 01-2.392-9.605 20.328 20.328 0 015.993-14.469A20.33 20.33 0 0124.72 2.815h.002A20.326 20.326 0 0139.19 8.808a20.326 20.326 0 015.994 14.47 20.327 20.327 0 01-5.994 14.468z" fill="#ED1556"/><path d="M33.372 25.353a2.75 2.75 0 00-3.884 0l-1.171 1.171a17.048 17.048 0 01-6.846-6.846l1.17-1.17a2.749 2.749 0 000-3.885l-3.155-3.156a2.75 2.75 0 00-3.884 0l-2.525 2.525c-1.446 1.446-1.518 3.932-.203 7 1.142 2.665 3.231 5.593 5.884 8.245 2.652 2.653 5.58 4.743 8.245 5.884 1.458.625 2.784.937 3.93.937 1.266 0 2.311-.38 3.07-1.14l2.525-2.525a2.729 2.729 0 00.805-1.942c0-.733-.286-1.423-.805-1.942l-3.156-3.156zm-1.36 7.575c-.412.412-1.681.557-3.9-.394-2.343-1.004-4.958-2.882-7.363-5.287-2.406-2.405-4.283-5.02-5.287-7.363-.951-2.22-.807-3.489-.394-3.902l2.476-2.476 3.059 3.06-1.466 1.466a2.149 2.149 0 00-.398 2.501 19.86 19.86 0 008.723 8.723c.834.425 1.84.266 2.502-.398l1.466-1.465 3.06 3.058-2.477 2.477z" fill="#ED1556"/></g><defs><clipPath id="clip0_245_7530"><path fill="#fff" d="M0 0h48v48H0z"/></clipPath></defs></svg>